<svg xmlns="http://www.w3.org/2000/svg" width="37.359" height="33" viewBox="0 0 37.359 33">
  <path id="bluesky-icon" d="M8.1,2.222c4.283,3.226,8.89,9.767,10.581,13.277,1.691-3.51,6.3-10.051,10.581-13.277,3.091-2.327,8.1-4.129,8.1,1.6,0,1.144-.654,9.615-1.038,10.991-1.333,4.78-6.193,6-10.515,5.262,7.556,1.29,9.477,5.563,5.327,9.836-7.883,8.115-11.331-2.036-12.213-4.637-.255-.749-.218-.766-.479,0-.883,2.6-4.33,12.753-12.213,4.637C2.076,25.639,4,21.367,11.553,20.077c-4.322.738-9.182-.482-10.515-5.262C.654,13.439,0,4.968,0,3.824c0-5.731,5.008-3.93,8.1-1.6Z" transform="translate(0 0)" fill="#fff"/>
</svg>
