<?xml version="1.0" encoding="UTF-8"?>
<svg id="Layer_1" xmlns="http://www.w3.org/2000/svg" xmlns:xlink="http://www.w3.org/1999/xlink" version="1.1" viewBox="0 0 38 40.3">
  <!-- Generator: Adobe Illustrator 29.3.1, SVG Export Plug-In . SVG Version: 2.1.0 Build 151)  -->
  <defs>
    <style>
      .st0 {
        fill: #c6c6c6;
      }
    </style>
  </defs>
  <path class="st0" d="M6.4,33.2c.9-1.4,2.1-2.6,3.5-3.5,2.7-1.7,5.9-2.7,9.1-2.6,3.2,0,6.4.9,9.1,2.6,1.4.9,2.6,2.1,3.5,3.5,3.9-3.5,6.4-8.5,6.4-14.2C38,8.5,29.5,0,19,0S0,8.5,0,19s2.5,10.7,6.4,14.2ZM13.7,11.5c1.4-1.5,3.3-2.3,5.3-2.2,2,0,3.9.8,5.3,2.3,1.4,1.5,2.1,3.5,1.9,5.6-.3,4.2-3.5,7.7-7.2,7.7s-6.9-3.5-7.2-7.7c-.2-2,.5-4.1,1.9-5.6Z"/>
</svg>