<svg id="logo" xmlns="http://www.w3.org/2000/svg" width="221.144" height="73.996" viewBox="0 0 221.144 73.996">
  <g id="Group_143" data-name="Group 143">
    <g id="Group_133" data-name="Group 133">
      <path id="Path_367" data-name="Path 367" d="M31.23,73.995A31.265,31.265,0,0,1,0,42.766V42.7c0-.442.013-.915.038-1.447l.018-.3q.035-.612.093-1.22l.031-.307q.07-.655.162-1.279l.028-.194c.154-1,.359-1.995.608-2.967L1,34.9c.11-.424.237-.872.374-1.318l.066-.211c.132-.418.273-.836.42-1.239l.051-.144c.342-.929.729-1.844,1.152-2.724l.062-.125q.281-.577.582-1.136l.144-.265q.281-.511.582-1.012l.133-.223c.5-.821,1.041-1.618,1.605-2.375l.131-.172q.36-.476.734-.934c.073-.089.146-.177.219-.263.237-.283.486-.571.741-.855l.178-.2c.65-.711,1.338-1.4,2.045-2.042l.042-.038c.332-.3.685-.607,1.049-.909l.112-.092c.336-.276.676-.544,1.011-.8l.115-.087q.444-.333.9-.649a11.253,11.253,0,0,1-.322-8.327A9.2,9.2,0,0,1,23.369,3.022a11.734,11.734,0,0,1,15.722,0A9.254,9.254,0,0,1,49.331,8.759a11.256,11.256,0,0,1-.321,8.329q.331.231.659.471l.012.007.241.181c.365.274.739.568,1.112.874l.094.078c.391.324.732.62,1.062.919l.048.043c.707.644,1.4,1.331,2.044,2.042l.174.194c.259.288.509.576.753.869l.209.252c.252.309.5.619.734.934l.134.176c.56.752,1.1,1.548,1.6,2.365l.139.233q.3.5.582,1.013l.145.266c.2.37.393.748.574,1.121l.07.143c.42.873.806,1.787,1.146,2.711l.054.151c.146.4.287.821.42,1.242l.063.2c.144.47.267.9.379,1.336l.023.084c.247.965.452,1.965.607,2.965l.03.208c.059.392.113.819.159,1.25l.032.308c.039.416.07.822.093,1.229l.018.3c.026.542.038,1.028.038,1.49V42.8A31.265,31.265,0,0,1,31.23,74Z" fill="#fff"/>
      <path id="Path_368" data-name="Path 368" d="M155.041,137.372c0-.09-.011-.178-.017-.268q-.031-.547-.083-1.088-.014-.142-.029-.284-.061-.571-.144-1.135c-.008-.056-.016-.112-.024-.168q-.208-1.348-.543-2.651c-.006-.023-.012-.045-.018-.068q-.155-.6-.337-1.186l-.058-.186q-.176-.559-.375-1.107l-.048-.135q-.457-1.241-1.026-2.425c-.019-.04-.04-.08-.059-.12q-.247-.508-.514-1c-.042-.079-.086-.158-.129-.237q-.252-.457-.52-.9c-.041-.069-.082-.139-.124-.207q-.667-1.09-1.429-2.114c-.039-.053-.08-.1-.12-.156q-.319-.423-.654-.832l-.188-.227q-.328-.392-.669-.772c-.053-.059-.106-.119-.159-.178q-.871-.954-1.828-1.825l-.032-.028q-.462-.419-.942-.816l-.1-.083q-.489-.4-.995-.782l0,0a27.84,27.84,0,0,0-7.951-4.159l.005.025c-.662-.218-1.334-.415-2.017-.583l-.248-1.22a27.271,27.271,0,0,1,6.083,2.263l1.388.712.646-1.42a7.972,7.972,0,0,0,.391-6.079,5.937,5.937,0,0,0-5.476-3.741,6.247,6.247,0,0,0-2.712.646,8.264,8.264,0,0,0-6.79-3.517V100.8h0V99.31a8.264,8.264,0,0,0-6.79,3.517,6.247,6.247,0,0,0-2.712-.646,5.937,5.937,0,0,0-5.476,3.741,7.973,7.973,0,0,0,.391,6.079l.646,1.42,1.388-.712a27.275,27.275,0,0,1,6.083-2.263l-.248,1.22c-.683.169-1.354.365-2.017.583l.005-.025a27.851,27.851,0,0,0-7.951,4.159l0,0q-.507.38-.995.782l-.1.083q-.48.4-.943.817l-.031.028q-.955.87-1.827,1.825c-.054.059-.106.119-.16.178q-.341.38-.669.772l-.188.227q-.335.41-.655.833l-.119.155q-.761,1.022-1.429,2.114c-.042.069-.082.138-.124.207q-.268.446-.52.9c-.043.079-.087.157-.129.237q-.267.5-.514,1c-.02.04-.04.079-.059.12q-.569,1.183-1.026,2.425c-.017.045-.032.09-.048.135q-.2.548-.375,1.107l-.058.186q-.181.588-.337,1.186c-.006.023-.012.045-.018.068q-.334,1.3-.543,2.651c-.009.056-.016.112-.024.168q-.083.564-.144,1.135-.015.142-.029.284-.052.541-.083,1.088c-.005.089-.012.178-.017.268-.021.44-.034.883-.034,1.328,0,0,0,.009,0,.014s0,.009,0,.014a27.882,27.882,0,1,0,55.764,0s0-.009,0-.014,0-.009,0-.014c0-.446-.013-.888-.034-1.328Z" transform="translate(-95.964 -95.963)" fill="#fff"/>
      <g id="Group_132" data-name="Group 132" transform="translate(3.347 3.347)">
        <circle id="Ellipse_24" data-name="Ellipse 24" cx="27.882" cy="27.882" r="27.882" transform="translate(0 11.536)" fill="#fff"/>
        <g id="Group_131" data-name="Group 131">
          <path id="Path_369" data-name="Path 369" d="M747.238,407.24a27.8,27.8,0,0,0-4.884.427l-1.374,6.751,12.473-.214-1.331-6.537A27.8,27.8,0,0,0,747.238,407.24Z" transform="translate(-719.356 -396.863)" fill="#fff"/>
          <path id="Path_370" data-name="Path 370" d="M538.739,146.7a4.281,4.281,0,0,0-1.721-.364,5.23,5.23,0,0,0-3.356,1.349c-.532-2.293-3.194-4.22-6.146-4.22s-5.613,1.927-6.146,4.22a5.231,5.231,0,0,0-3.356-1.349,4.28,4.28,0,0,0-1.721.364c-2.963,1.29-3.242,4.642-2.009,7.353a29.068,29.068,0,0,1,26.464,0C541.981,151.347,541.7,147.995,538.739,146.7Z" transform="translate(-499.634 -141.982)" fill="#fff"/>
          <g id="Group_129" data-name="Group 129" transform="translate(12.473)">
            <g id="Group_128" data-name="Group 128">
              <path id="Path_371" data-name="Path 371" d="M941.667,105.933a5.938,5.938,0,0,0-5.476-3.741,6.248,6.248,0,0,0-2.712.646,8.264,8.264,0,0,0-6.79-3.517v18.935l8.03-.138-1.56-7.661a27.273,27.273,0,0,1,6.083,2.263l1.388.712.646-1.42a7.973,7.973,0,0,0,.391-6.079Z" transform="translate(-911.281 -99.32)"/>
              <path id="Path_372" data-name="Path 372" d="M478.059,102.847a6.247,6.247,0,0,0-2.712-.646,5.937,5.937,0,0,0-5.476,3.741,7.973,7.973,0,0,0,.391,6.079l.646,1.42,1.388-.712a27.276,27.276,0,0,1,6.083-2.263l-1.56,7.661,8.029.138V99.33A8.264,8.264,0,0,0,478.059,102.847Z" transform="translate(-469.44 -99.33)"/>
            </g>
            <path id="Path_373" data-name="Path 373" d="M538.748,146.7a4.281,4.281,0,0,0-1.721-.364,5.23,5.23,0,0,0-3.356,1.349c-.532-2.293-3.194-4.22-6.145-4.22s-5.613,1.927-6.146,4.22a5.231,5.231,0,0,0-3.356-1.349,4.281,4.281,0,0,0-1.721.364c-2.963,1.29-3.242,4.642-2.009,7.353a27.78,27.78,0,0,1,8.665-2.829l-1.648,8.094,6.193.106h.043l6.193-.106-1.649-8.094a27.785,27.785,0,0,1,8.665,2.829C541.99,151.347,541.712,147.995,538.748,146.7Z" transform="translate(-512.116 -141.982)" fill="#fff"/>
          </g>
          <path id="Path_374" data-name="Path 374" d="M135.942,482.56l.608,2.985a25.278,25.278,0,1,1-18.675,0l.608-2.985a27.882,27.882,0,1,0,17.46,0Z" transform="translate(-99.33 -469.645)" fill="#ff634d"/>
          <path id="Path_375" data-name="Path 375" d="M322.971,590.71c7.442,0,13.175,4.7,13.175,11.779a13.229,13.229,0,0,1-5.564,10.248,41.387,41.387,0,0,1,4.346,3.8c-1.617,1.883-4.514,6.984-17.208,1.947,0,2,1.559,4.611,4.221,6.536,0-1.822,2.5-2.218,4.713-2.218,5.385,0,7.5,1.984,7.5,5.958,0,5.682-5.258,7.975-12.178,7.975-8.824,0-21.129-7.232-21.129-23.567,0-11.484,7.289-22.458,22.122-22.458Z" transform="translate(-294.059 -574.15)" fill="#6eea9e"/>
          <path id="Path_376" data-name="Path 376" d="M1348.231,941.606a4.686,4.686,0,0,1,.276,5.036c-1.2,2.027,1.992,4.311,3.681.258s-4-6.66-4-6.66Z" transform="translate(-1306.103 -911.901)"/>
          <path id="Path_377" data-name="Path 377" d="M1344.26,882.823a7.078,7.078,0,0,1,5.682,5.989c.092.461,0,1.628,1.044,1.044s2.18-4.545-1.082-7.222a7.181,7.181,0,0,0-5.823-1.251l.18,1.44Z" transform="translate(-1302.131 -854.87)"/>
          <g id="Group_130" data-name="Group 130" transform="translate(6.791 37.224)">
            <path id="Path_378" data-name="Path 378" d="M318.587,1213.882v0a6.077,6.077,0,0,1-.877-2.9l-2.3-1.693-2.067-2.019c-3.71,1.4-9.852-1.46-12.437-3.4-.04.6-.064,1.194-.064,1.794a26.43,26.43,0,0,0,1.954,10.31,17.07,17.07,0,0,0,5.58,1.311c6.8.737,10.213-3.4,10.213-3.4Z" transform="translate(-300.84 -1203.87)" fill="#058e6c"/>
            <path id="Path_379" data-name="Path 379" d="M828.226,1634.173c1.209-2.069.73-4.625-.082-7a13.745,13.745,0,0,1-1.642-.614l-.492.189c1.222,3.185,1.4,5.125.609,6.487a10.511,10.511,0,0,1-4.87,4.069,18.334,18.334,0,0,0,3.164.361A11.391,11.391,0,0,0,828.226,1634.173Z" transform="translate(-804.195 -1612.315)" fill="#058e6c"/>
            <path id="Path_380" data-name="Path 380" d="M1025.761,1661.6a7.087,7.087,0,0,0-.382-5.172,5.36,5.36,0,0,0-.759-1.146,7.243,7.243,0,0,1-1.74-.026,3.816,3.816,0,0,1,1.5,1.665,5.991,5.991,0,0,1,.332,4.305,9.207,9.207,0,0,1-3.1,4,18.882,18.882,0,0,0,2.046-.353,9.306,9.306,0,0,0,2.1-3.275Z" transform="translate(-997.32 -1640.048)" fill="#058e6c"/>
          </g>
          <path id="Path_381" data-name="Path 381" d="M945.92,1302.874s3.691-1.854,6.05-1.176c.746.215,3.107.924.577,2.646-.942.062-2.97.07-3.062.077s-3.521-1.278-3.521-1.278l-.043-.27Z" transform="translate(-917.389 -1261.033)" fill="#ff634d"/>
          <path id="Path_382" data-name="Path 382" d="M293.679,567.035c13.5.111,18.7,14.863,7.722,22.966l0-.3c.8.558,1.556,1.158,2.31,1.766.565.46,1.125.923,1.668,1.411.2.234.841.581.566.981a9.451,9.451,0,0,1-8.368,4.406,27.336,27.336,0,0,1-9.389-2.063l.89-.6a4.858,4.858,0,0,0,.309,1.737,10.578,10.578,0,0,0,3.48,4.5l-.59.3c.085-3.238,6.987-2.631,9.1-1.961a5.374,5.374,0,0,1,2.784,1.9,7.635,7.635,0,0,1,.616,6.558,7.906,7.906,0,0,1-4.824,4.537c-9.709,3.562-20.884-.845-26.022-9.731a26.768,26.768,0,0,1-.135-25.829c4.048-7.174,11.835-10.747,19.888-10.572h0Zm0,1.583c-11.388-.006-19.686,7.513-20.952,18.809a26.052,26.052,0,0,0,2.725,15.142c4.573,8.455,14.973,12.92,24.173,9.757a6.779,6.779,0,0,0,4.039-9.907,4.634,4.634,0,0,0-2.461-1.727c-2.046-.626-5.818-.914-7.647.315a1.277,1.277,0,0,0-.536,1.129.372.372,0,0,1-.59.3c-2.275-1.585-4.449-3.911-4.653-6.837a.641.641,0,0,1,.89-.6,36.224,36.224,0,0,0,4.39,1.522c4.839,1.284,9.122,1.268,12.3-3.107,0,0-.019.461-.019.461A39.847,39.847,0,0,0,301.18,590a.184.184,0,0,1,0-.3c9.684-7.786,5.081-21.32-7.5-21.087Z" transform="translate(-264.766 -551.266)"/>
          <path id="Path_383" data-name="Path 383" d="M916.033,1588.89a8.654,8.654,0,0,0,3.832,1.93,6.868,6.868,0,0,0,3.7-.111c1.493-1-1.021-1.482-1.791-1.448a2.114,2.114,0,0,0-1.647.651.113.113,0,0,1-.186-.126,1.721,1.721,0,0,1,.814-.652c.846-.435,3.561-.272,3.707.9a1.2,1.2,0,0,1-.674,1.089,4.8,4.8,0,0,1-2.02.407,9.06,9.06,0,0,1-3.962-.7,8.612,8.612,0,0,1-1.894-1.071,2.5,2.5,0,0,1,.123-.872Z" transform="translate(-888.391 -1538.691)" fill="#058e6c"/>
          <path id="Path_384" data-name="Path 384" d="M874.581,946.73c1.158-.727,5.189-5.539,2.445-6.082-2.637-.271-5.743,2.512-7.559,4.253l-.987-1.08a22.6,22.6,0,0,1,4.223-3.065c1.664-.851,4.084-1.951,5.723-.4,1.675,2.126-2.137,5.822-3.7,7.088l-.407-.522.258-.191h0Z" transform="translate(-842.559 -911.26)"/>
          <path id="Path_385" data-name="Path 385" d="M575,841.9a14.543,14.543,0,0,1-4.638-3.9,12.811,12.811,0,0,1-1.478-12.783c.186-.476,1.6-3.714,2.079-3.336a.188.188,0,0,1,.018.264,12.8,12.8,0,0,0-1.39,3.317c-2.25,7.675,1.25,13.308,7.3,16.157a1.445,1.445,0,0,0-.471,1.176A6.1,6.1,0,0,1,575,841.9Z" transform="translate(-552.027 -797.502)" fill="#058e6c"/>
          <path id="Path_386" data-name="Path 386" d="M648.158,1284.287a14.542,14.542,0,0,1-4.638-3.9,2.163,2.163,0,0,0,.969-.721,14.874,14.874,0,0,0,5.565,4.341,1.445,1.445,0,0,0-.471,1.177A6.114,6.114,0,0,1,648.158,1284.287Z" transform="translate(-625.181 -1239.892)"/>
          <path id="Path_387" data-name="Path 387" d="M888.07,986.747l2.066,2.544s5.812-4.155,4.66-5.644c-.452-.584-1.351-.344-1.7-.215A18.074,18.074,0,0,0,888.07,986.747Z" transform="translate(-861.489 -953.483)"/>
          <path id="Path_388" data-name="Path 388" d="M852.6,1192.573a9.112,9.112,0,0,1,6.6-1.322c.981.183,2.321,1.056,1.558,2.2a4.358,4.358,0,0,1-1.179.954,13.789,13.789,0,0,1-4.056-.114,8.942,8.942,0,0,1-5.1-3.14,3.188,3.188,0,0,1-.748-2.618,1.554,1.554,0,0,1,1.523-1.064,2.886,2.886,0,0,1,1.942,1.041l-.7.674a2.039,2.039,0,0,0-1.26-.826.7.7,0,0,0-.762.771c.259,2.281,3.169,4.042,5.244,4.51a13.006,13.006,0,0,0,3.783.162l-.147.053c.409-.28.9-.492,1.078-.948.085-.69-.731-.952-1.313-1.123a7.479,7.479,0,0,0-3.846.1,10.4,10.4,0,0,0-2.422.995l-.2-.314h0Z" transform="translate(-824.315 -1150.801)"/>
          <path id="Path_389" data-name="Path 389" d="M1047.363,1345.706l-.093-.36a2.2,2.2,0,0,0,1.294-1.136l.352.121a2.549,2.549,0,0,1-1.552,1.376Z" transform="translate(-1015.324 -1302.257)"/>
        </g>
      </g>
    </g>
    <g id="Group_142" data-name="Group 142" transform="translate(62.337 12.137)">
      <path id="Path_390" data-name="Path 390" d="M1983.732,418.415a29.033,29.033,0,0,1-9.077-1.275,23.3,23.3,0,0,1-7.681,1.019,16.815,16.815,0,0,1-6.747-1.147,20.074,20.074,0,0,1-7.037,1.019,17.753,17.753,0,0,1-7.871-1.445,11.724,11.724,0,0,1-2.16-1.33,25.386,25.386,0,0,1-12.47,3.03c-6.091,0-10.912-1.283-14.711-3.917a24.619,24.619,0,0,1-13.916,3.917c-5.7,0-10.29-1.124-13.97-3.429-3.737,2.107-8.582,3.174-14.445,3.174-4.922,0-15.163,0-17.035-9.623a75.175,75.175,0,0,1-.515-11.074q0-.829.007-1.632a13.284,13.284,0,0,1-2.687-8.152,14.356,14.356,0,0,1,.092-1.627c-1.974-1.981-3.759-5.155-3.759-10.155,0-9.013,6.827-15.555,16.232-15.555a14.294,14.294,0,0,1,6.6,1.383,17.632,17.632,0,0,1,7.122-1.435,15.775,15.775,0,0,1,8.662,2.337,18.014,18.014,0,0,1,15.245-1.173,14.909,14.909,0,0,1,6.137-1.008,12.759,12.759,0,0,1,5.315.865,12.365,12.365,0,0,1,4.918-.917,9.658,9.658,0,0,1,3.824.764,15.694,15.694,0,0,1,5.544-.8,9.96,9.96,0,0,1,3.839.742,11.9,11.9,0,0,1,4.442-.742,10.822,10.822,0,0,1,4.157.821,11.22,11.22,0,0,1,4.253-.794,9.809,9.809,0,0,1,4.459,1.028,17.634,17.634,0,0,1,6.356-1.132,15.932,15.932,0,0,1,6.273,1.2q.328-.142.67-.263c1.863-.657,4.112-.913,8.021-.913a19.09,19.09,0,0,1,6.614,1.023,16.62,16.62,0,0,1,6.448-.945,14.192,14.192,0,0,1,6.442,1.373,11.229,11.229,0,0,1,5.875-1.5,12.252,12.252,0,0,1,9.292,3.609l.057.06a7.332,7.332,0,0,1,1.849,6.59l-1.32,6.133a9.97,9.97,0,0,1,.834,3.9,8.535,8.535,0,0,1-3.36,7.029c.006.16.009.32.009.48a13.931,13.931,0,0,1-1.143,5.6,15.7,15.7,0,0,1,1.4,6.606,17.978,17.978,0,0,1-.918,5.7A6.8,6.8,0,1,1,1994.94,416a25.049,25.049,0,0,1-11.21,2.411Z" transform="translate(-1849.75 -360.13)" fill="#fff"/>
      <path id="Path_391" data-name="Path 391" d="M2100.552,476.4a6.5,6.5,0,0,0-.961-3.328l.887-5.777,1-3.768-1.432-1.509a8.932,8.932,0,0,0-6.864-2.565,7.112,7.112,0,0,0-5.72,2.347c-1.733-1.773-4.382-2.217-6.6-2.217a13.271,13.271,0,0,0-5.259.729,5.975,5.975,0,0,0-1.068.588,13.9,13.9,0,0,0-6.735-1.395c-3.5,0-5.433.2-6.907.723a6.408,6.408,0,0,0-1.725.912,11.615,11.615,0,0,0-6.331-1.66,13.876,13.876,0,0,0-6.676,1.611,5.864,5.864,0,0,0-4.138-1.507,7.457,7.457,0,0,0-3.407.745l-.933.494a6.882,6.882,0,0,0-4.07-1.265,7.494,7.494,0,0,0-4.509,1.211,6.015,6.015,0,0,0-3.772-1.211,10.594,10.594,0,0,0-5.164.938c-.152.081-.319.18-.493.3a6,6,0,0,0-3.711-1.2,8.156,8.156,0,0,0-5,1.43,4.915,4.915,0,0,0-1.094-.718,9.383,9.383,0,0,0-4.139-.66,11.678,11.678,0,0,0-4.893.772,5.587,5.587,0,0,0-1.1.68,14,14,0,0,0-15.468,1.627,11.466,11.466,0,0,0-8.579-3.236,13.492,13.492,0,0,0-7.336,1.986c-1.186-1.112-3.153-1.934-6.385-1.934-7.587,0-12.885,5.02-12.885,12.208,0,4.038,1.429,7.06,4.071,8.86a10.421,10.421,0,0,0-.4,2.922,9.8,9.8,0,0,0,2.528,6.741l.176.188c-.016.927-.023,1.877-.023,2.855a84.1,84.1,0,0,0,.453,10.435c1.345,6.915,8.81,6.915,13.75,6.915,7.063,0,11.614-1.638,14.536-3.887.214.179.426.35.636.506,3.279,2.447,7.611,3.637,13.243,3.637s10.537-1.744,13.967-4.849a14.5,14.5,0,0,0,1.417,1.213c3.279,2.447,7.611,3.637,13.243,3.637a20.859,20.859,0,0,0,12.932-3.984,8,8,0,0,0,3.135,2.609,14.667,14.667,0,0,0,6.433,1.121c3.22,0,5.436-.425,7.126-1.4a11.855,11.855,0,0,0,6.657,1.524c3.441,0,5.733-.378,7.64-1.258a23.564,23.564,0,0,0,9.118,1.514c5.639,0,9.84-1.591,12.737-4.03-.01.106-.016.212-.016.32a3.462,3.462,0,1,0,2.726-3.378,14.345,14.345,0,0,0,2.286-7.837,12.217,12.217,0,0,0-1.846-6.6,10.156,10.156,0,0,0,1.59-5.611,9.8,9.8,0,0,0-.269-2.274,5.316,5.316,0,0,0,3.619-5.236Z" transform="translate(-1945.742 -456.103)" fill="#fff"/>
      <g id="Group_141" data-name="Group 141" transform="translate(3.347 3.347)">
        <g id="Group_136" data-name="Group 136">
          <g id="Group_134" data-name="Group 134">
            <path id="Path_392" data-name="Path 392" d="M1960.351,484.9c-7.162,0-11.271-3.927-11.271-10.776,0-7.188,5.3-12.208,12.885-12.208,7.042,0,8.094,3.9,8.094,6.219a6.487,6.487,0,0,1-2.545,5.114,5.988,5.988,0,0,1,2.754,4.988c0,2.019-.966,6.662-9.917,6.662Z" transform="translate(-1949.08 -461.837)" fill="#ff634d"/>
            <path id="Path_393" data-name="Path 393" d="M2375.809,483.416c-3.446,0-6.1-.728-8.105-2.226-1.718-1.281-3.764-3.777-3.764-8.394,0-7.427,5.073-12.416,12.625-12.416,7.032,0,11.4,4.259,11.4,11.114,0,7.242-4.772,11.922-12.156,11.922Z" transform="translate(-2349.959 -460.349)" fill="#ff634d"/>
            <path id="Path_394" data-name="Path 394" d="M2895.739,483.416c-3.447,0-6.1-.728-8.105-2.226-1.717-1.281-3.764-3.777-3.764-8.394,0-7.427,5.073-12.416,12.625-12.416,7.032,0,11.4,4.259,11.4,11.114,0,7.242-4.771,11.922-12.156,11.922Z" transform="translate(-2852.367 -460.349)" fill="#ff634d"/>
            <path id="Path_395" data-name="Path 395" d="M3409.147,486.333a7.256,7.256,0,0,1-4.075-.933,8.617,8.617,0,0,1-4.362.855,8.97,8.97,0,0,1-3.937-.686,4.8,4.8,0,0,1-2.8-4.18c-.08-1.3-.136-3.672-.136-5.753,0-.561,0-1.073.006-1.543l-.621-1a6.742,6.742,0,0,1-1.025-3.7,5.37,5.37,0,0,1,3.123-5.083,11.713,11.713,0,0,1,4.893-.772,9.425,9.425,0,0,1,4.139.66,4.9,4.9,0,0,1,1.095.718,8.272,8.272,0,0,1,5-1.43,5.526,5.526,0,0,1,5.8,5.62,7.145,7.145,0,0,1-.321,2.137l-.281.912-1.838,2.387.585.744.688-.016,1.132,2.013a6.492,6.492,0,0,1,.816,3.177,5.41,5.41,0,0,1-3.161,5.089,10.779,10.779,0,0,1-4.724.792Z" transform="translate(-3343.566 -463.344)" fill="#ff634d"/>
            <path id="Path_396" data-name="Path 396" d="M3989.572,485.332a7.962,7.962,0,0,1-3.52-.713l-1.781.42a10.037,10.037,0,0,1-2.589.293c-1.514,0-6.115,0-7.333-4.984l-1.845-7.278-.5-.62a5.875,5.875,0,0,1-1.25-3.8,5.542,5.542,0,0,1,2.956-5.177,10.594,10.594,0,0,1,5.164-.938,6.015,6.015,0,0,1,3.771,1.211,7.5,7.5,0,0,1,4.509-1.211,6.884,6.884,0,0,1,4.07,1.265l.933-.494a7.455,7.455,0,0,1,3.407-.745c3.424,0,5.725,2.206,5.725,5.49a10.473,10.473,0,0,1-1.322,4.743l-5.607,11.947-1.907.332a19.109,19.109,0,0,1-2.877.264Z" transform="translate(-3902.619 -462.426)" fill="#ff634d"/>
            <path id="Path_397" data-name="Path 397" d="M4654.469,483.213c-6.47,0-10.49-3.909-10.49-10.2,0-7.525,5.32-12.781,12.938-12.781,6.486,0,10.516,3.89,10.516,10.151,0,7.915-4.968,12.832-12.963,12.832Z" transform="translate(-4553.16 -460.204)" fill="#ff634d"/>
            <path id="Path_398" data-name="Path 398" d="M5157.633,483.915a5.851,5.851,0,0,1-6.219-6.141,14.739,14.739,0,0,1,.359-2.917l.763-3.9-.064-.086a5.92,5.92,0,0,1-1.162-3.691,5.526,5.526,0,0,1,3.895-5.444c1.475-.52,3.411-.723,6.907-.723,3.261,0,5.716.612,7.507,1.871a7.361,7.361,0,0,1,3.139,6.327,8.685,8.685,0,0,1-1.385,4.813l.12.153a6.372,6.372,0,0,1,1.265,3.758,5.414,5.414,0,0,1-2.667,4.863,10.03,10.03,0,0,1-5.271,1.1,6.757,6.757,0,0,1-2.738-.522l-1.055.229a17.42,17.42,0,0,1-3.394.319Z" transform="translate(-5043.393 -460.957)" fill="#ff634d"/>
            <path id="Path_399" data-name="Path 399" d="M5607.448,482.382a5.554,5.554,0,0,1-5.88-5.594,37.243,37.243,0,0,1,.869-5.812c.1-.538.194-1.049.28-1.527l-.068-.091a5.925,5.925,0,0,1-1.16-3.69,5.55,5.55,0,0,1,3.433-5.359,13.527,13.527,0,0,1,5.259-.729c2.128,0,4.864.444,6.6,2.217a7.126,7.126,0,0,1,5.72-2.347,8.946,8.946,0,0,1,6.864,2.565l1.432,1.509-1.005,3.768-.887,5.777a6.5,6.5,0,0,1,.961,3.328c0,2.226-1.062,5.959-8.173,5.959a6.157,6.157,0,0,1-4.092-1.414,8.612,8.612,0,0,1-3.12.554,7.693,7.693,0,0,1-1.674-.174l-.014.088-2.341.615a12.955,12.955,0,0,1-3,.356Z" transform="translate(-5478.402 -459.45)" fill="#ff634d"/>
          </g>
          <g id="Group_135" data-name="Group 135" transform="translate(3.667 13.785)">
            <path id="Path_400" data-name="Path 400" d="M2074.773,912.011c-4.94,0-12.4,0-13.75-6.915a83.967,83.967,0,0,1-.453-10.435c0-.979.008-1.928.023-2.855l-.176-.188a9.8,9.8,0,0,1-2.528-6.741,9.012,9.012,0,0,1,6.6-9.012c2.439-.785,5.563-1.064,11.938-1.064,5.6,0,9.548.986,12.415,3.1a11.1,11.1,0,0,1,4.51,9.356,11.34,11.34,0,0,1-.639,3.766,11.645,11.645,0,0,1,1.7,6.232c0,4.437-1.915,14.755-19.647,14.755Z" transform="translate(-2057.89 -874.588)" fill="#ff634d"/>
            <path id="Path_401" data-name="Path 401" d="M2845.962,907.376c-5.631,0-9.963-1.189-13.243-3.637-2.806-2.092-6.15-6.171-6.15-13.714,0-12.134,8.289-20.286,20.626-20.286,11.49,0,18.627,6.958,18.627,18.158,0,11.833-7.8,19.478-19.861,19.478Z" transform="translate(-2800.665 -869.698)" fill="#ff634d"/>
            <path id="Path_402" data-name="Path 402" d="M3695.422,907.376c-5.631,0-9.963-1.189-13.243-3.637-2.806-2.092-6.149-6.171-6.149-13.714,0-12.134,8.289-20.286,20.626-20.286,11.489,0,18.626,6.958,18.626,18.158,0,11.833-7.8,19.478-19.86,19.478Z" transform="translate(-3621.498 -869.698)" fill="#ff634d"/>
            <path id="Path_403" data-name="Path 403" d="M4534.229,912.138a11.862,11.862,0,0,1-6.658-1.524c-1.689.972-3.905,1.4-7.125,1.4a14.667,14.667,0,0,1-6.434-1.121,7.844,7.844,0,0,1-4.569-6.832c-.13-2.118-.222-6-.222-9.4,0-.917,0-1.754.011-2.521l-1.016-1.641a11.013,11.013,0,0,1-1.676-6.048,8.771,8.771,0,0,1,5.1-8.3c2.375-1.108,5.246-1.262,7.994-1.262a15.42,15.42,0,0,1,6.764,1.079,8.014,8.014,0,0,1,1.788,1.172,13.512,13.512,0,0,1,8.168-2.336c5.494,0,9.48,3.861,9.48,9.182a11.685,11.685,0,0,1-.524,3.491l-.459,1.49-4.117,3.991.957,1.215,2.237-.118,1.85,3.289a10.606,10.606,0,0,1,1.333,5.191,8.838,8.838,0,0,1-5.164,8.314c-1.923.907-4.23,1.294-7.719,1.294Z" transform="translate(-4424.02 -874.588)" fill="#ff634d"/>
            <path id="Path_404" data-name="Path 404" d="M5385.251,906.306c-13.357,0-15.351-6.659-15.351-10.628a9.839,9.839,0,0,1,1.9-5.863,12.992,12.992,0,0,1-1.433-6.05c0-8.988,7.223-15.265,17.563-15.265,4.078,0,7.26.7,9.728,2.131a9.738,9.738,0,0,1,5.07,8.541,10.155,10.155,0,0,1-1.59,5.611,12.217,12.217,0,0,1,1.846,6.6c0,7.429-5.484,14.925-17.733,14.925Z" transform="translate(-5258.284 -868.5)" fill="#ff634d"/>
          </g>
        </g>
        <g id="Group_137" data-name="Group 137" transform="translate(143.355 44.424)">
          <circle id="Ellipse_25" data-name="Ellipse 25" cx="3.458" cy="3.458" r="3.458" fill="#ff634d"/>
          <path id="Path_405" data-name="Path 405" d="M6255.181,1858.93h-.068v.963a.629.629,0,0,1-.3.049c-.225,0-.3-.039-.313-.146-.005-.078-.01-.259-.01-.5,0-.161,0-.284,0-.376h-.288a.342.342,0,0,1-.063-.205c0-.137.093-.21.278-.21h.743l.254-.015a.256.256,0,0,1,.063.176c0,.181-.113.264-.3.264Zm2.4-.176v1.169a1.139,1.139,0,0,1-.225.024c-.166,0-.234-.024-.249-.113a3.074,3.074,0,0,1-.02-.459.659.659,0,0,1,0-.1c-.078.147-.181.347-.249.479a.411.411,0,0,1-.216.049.258.258,0,0,1-.215-.073,4.983,4.983,0,0,1-.215-.455v.641a.785.785,0,0,1-.215.025c-.166,0-.22-.029-.234-.113a4.444,4.444,0,0,1-.02-.543c0-.161.005-.293.01-.386h-.107a.248.248,0,0,1-.054-.171c0-.181.142-.24.464-.24.273,0,.376.078.445.21l.117.22a1.2,1.2,0,0,1,.093.176l.015-.02c.068-.132.2-.352.284-.484a.283.283,0,0,1,.264-.113.419.419,0,0,1,.342.107l-.02.166Z" transform="translate(-6252.412 -1855.756)" fill="#fff"/>
        </g>
        <g id="Group_140" data-name="Group 140" transform="translate(3.719 3.72)">
          <g id="Group_138" data-name="Group 138" transform="translate(6.024 17.821)">
            <path id="Path_406" data-name="Path 406" d="M2249.006,1130.007c-5.913,0-7.487-.468-7.785-2a83.11,83.11,0,0,1-.341-9.274c0-3.191.085-5.573.17-7.275l-1.957.086a3.849,3.849,0,0,1-.894-2.595c0-3.276,2.213-4,12.465-4,9.018,0,10.848,2.978,10.848,6.381a4.857,4.857,0,0,1-3.233,4.68,5.036,5.036,0,0,1,4.3,5.318C2262.576,1126.859,2258.28,1130.007,2249.006,1130.007Zm2.127-18.8h-1.148v4.254c.553-.043,1.489-.043,2.978-.043a3.2,3.2,0,0,0,.638-2.212C2253.6,1112.011,2252.834,1111.2,2251.133,1111.2Zm.3,8.509c-.426,0-.979.042-1.4.085v4.765a6.964,6.964,0,0,0,.979.085c1.787,0,3.148-.85,3.148-2.808,0-1.319-.638-2.127-2.723-2.127Z" transform="translate(-2238.2 -1104.737)" fill="#fff"/>
            <path id="Path_407" data-name="Path 407" d="M3020.206,1125.363c-7.87,0-13.315-2.723-13.315-11.274s5.573-14.209,14.549-14.209c8.125,0,12.55,4.169,12.55,12.082,0,9.1-5.7,13.4-13.783,13.4Zm.851-18.421c-2.766,0-4.382,2.128-4.382,6.126,0,4.3,1.361,5.573,4.084,5.573,2.3,0,4.212-1.786,4.212-6.253,0-3.829-1.148-5.445-3.914-5.445Z" transform="translate(-2980.985 -1099.838)" fill="#fff"/>
            <path id="Path_408" data-name="Path 408" d="M3869.665,1125.363c-7.87,0-13.315-2.723-13.315-11.274s5.573-14.209,14.549-14.209c8.125,0,12.55,4.169,12.55,12.082,0,9.1-5.7,13.4-13.783,13.4Zm.852-18.421c-2.766,0-4.382,2.128-4.382,6.126,0,4.3,1.361,5.573,4.084,5.573,2.3,0,4.211-1.786,4.211-6.253,0-3.829-1.148-5.445-3.914-5.445Z" transform="translate(-3801.818 -1099.838)" fill="#fff"/>
            <path id="Path_409" data-name="Path 409" d="M4708.491,1130.134c-2.936,0-3.574-.468-4.467-1.617-1.064-1.362-2.808-4.127-4.212-6.3a7.053,7.053,0,0,1-.808-1.7v8.763c-.638.51-2.3.724-4.3.724-3.7,0-4.85-.681-4.936-2.213-.127-2.085-.212-5.871-.212-9.061s.042-5.743.17-7.4l-2.084.043a4.946,4.946,0,0,1-.766-2.85c0-2.808,1.915-3.489,7.02-3.489,4.211,0,5.147.511,5.147,2.383l-.043,7.445a17,17,0,0,1,1.787-2.637l3.957-4.893c1.532-1.872,3.276-2.382,5.871-2.382,2.084,0,3.4,1.149,3.4,3.105a5.693,5.693,0,0,1-.255,1.7l-6.935,6.721,6.3,8,1.617-.086a4.611,4.611,0,0,1,.553,2.213c0,2.807-2.212,3.531-6.807,3.531Z" transform="translate(-4604.358 -1104.737)" fill="#fff"/>
            <path id="Path_410" data-name="Path 410" d="M5559.494,1124.282c-6.3,0-9.274-1.446-9.274-4.552a3.785,3.785,0,0,1,2.68-3.659,9.953,9.953,0,0,0,6,1.787c2.255,0,3.19-.34,3.19-.893,0-.426-.383-.6-.894-.724-1.276-.34-2.808-.808-5.062-1.532-3.361-1.106-5.446-3.445-5.446-6.891,0-5.4,4.169-9.189,11.486-9.189,6.169,0,8.721,1.957,8.721,4.594a3.751,3.751,0,0,1-3.276,3.956,8.684,8.684,0,0,0-4.978-1.574c-2.595,0-3.744.383-3.744,1.106,0,.51.3.6.808.724,1.532.3,3.276.724,5.573,1.361,4.425,1.234,5.872,3.871,5.872,6.636C5571.15,1120.241,5567.449,1124.282,5559.494,1124.282Z" transform="translate(-5438.603 -1098.63)" fill="#fff"/>
          </g>
          <g id="Group_139" data-name="Group 139">
            <path id="Path_411" data-name="Path 411" d="M2071.652,582.784a7.7,7.7,0,0,1-3.333.729c-1.8,0-2.76-.807-2.76-3.151,0-2.031,1.354-3.489,3.984-3.489a7.532,7.532,0,0,1,2.083.26,2.747,2.747,0,0,0,1.354-2.343c0-1.641-1.042-2.5-4.375-2.5-5.7,0-9.165,3.489-9.165,8.488s2.708,7.056,7.551,7.056c3.932,0,6.2-.99,6.2-2.942a2.315,2.315,0,0,0-1.537-2.109Z" transform="translate(-2059.44 -572.207)" fill="#fff"/>
            <path id="Path_412" data-name="Path 412" d="M2483.215,570.75c-5.494,0-8.9,3.411-8.9,8.7s3.333,6.9,8.15,6.9,8.437-2.63,8.437-8.2C2490.9,573.3,2488.188,570.75,2483.215,570.75Zm-.417,11.483c-1.667,0-2.5-.781-2.5-3.411,0-2.447.99-3.75,2.682-3.75s2.4.989,2.4,3.333C2485.376,581.14,2484.2,582.233,2482.8,582.233Z" transform="translate(-2460.329 -570.719)" fill="#fff"/>
            <path id="Path_413" data-name="Path 413" d="M3003.145,570.75c-5.494,0-8.905,3.411-8.905,8.7s3.333,6.9,8.15,6.9,8.437-2.63,8.437-8.2C3010.826,573.3,3008.118,570.75,3003.145,570.75Zm-.417,11.483c-1.667,0-2.5-.781-2.5-3.411,0-2.447.99-3.75,2.682-3.75s2.4.989,2.4,3.333C3005.306,581.14,3004.134,582.233,3002.728,582.233Z" transform="translate(-2962.737 -570.719)" fill="#fff"/>
            <path id="Path_414" data-name="Path 414" d="M3518.635,585.8l-3.854-4.9,4.244-4.114a3.477,3.477,0,0,0,.156-1.042,1.845,1.845,0,0,0-2.083-1.9,4.079,4.079,0,0,0-3.594,1.458l-2.422,2.995a10.342,10.342,0,0,0-1.093,1.614l.026-4.557c0-1.145-.573-1.458-3.15-1.458-3.125,0-4.3.417-4.3,2.135a3.029,3.029,0,0,0,.469,1.745l1.276-.026c-.078,1.015-.1,2.551-.1,4.531s.052,4.27.13,5.546c.052.938.755,1.354,3.021,1.354a5.154,5.154,0,0,0,2.63-.443V583.38a4.307,4.307,0,0,0,.495,1.041c.859,1.328,1.927,3.021,2.578,3.854.547.7.937.989,2.734.989,2.812,0,4.166-.443,4.166-2.161a2.821,2.821,0,0,0-.338-1.354l-.99.052Z" transform="translate(-3453.935 -573.714)" fill="#fff"/>
            <path id="Path_415" data-name="Path 415" d="M4082.073,585.9l-.7-3.619-2.291,5.781a6.411,6.411,0,0,1-1.8.209c-2.578,0-3.359-.651-3.724-2.162l-2.369-9.348h-.7a2.15,2.15,0,0,1-.417-1.458c0-1.849,1.146-2.4,4.4-2.4,1.38,0,1.9.6,2.187,1.849l1.64,7.29,2-5.156-.547-2.682c.547-1.015,1.406-1.3,2.994-1.3,1.484,0,2.162.443,2.344,1.64l1.224,7.213,3.177-8.515a3.961,3.961,0,0,1,1.667-.312c1.51,0,2,.7,2,1.77a6.971,6.971,0,0,1-.964,3.151l-4.791,10.207a15.544,15.544,0,0,1-2.239.209c-1.927,0-2.734-.5-3.1-2.37Z" transform="translate(-4002.31 -572.806)" fill="#fff"/>
            <path id="Path_416" data-name="Path 416" d="M4761.11,586.125c-4.036,0-6.77-1.927-6.77-6.484,0-4.869,3.046-9.061,9.217-9.061,4.765,0,6.8,2.474,6.8,6.431,0,5.754-3.255,9.113-9.244,9.113Zm1.953-11.092c-2.213,0-3.046,2.4-3.046,4.427,0,1.745.6,2.6,1.979,2.6,1.822,0,2.917-1.849,2.917-4.557C4764.912,576.256,4764.365,575.032,4763.063,575.032Z" transform="translate(-4663.521 -570.554)" fill="#fff"/>
            <path id="Path_417" data-name="Path 417" d="M5272.772,580.353a9.574,9.574,0,0,1,.729,1.145l.885,1.667.833-.052a2.685,2.685,0,0,1,.469,1.458c0,1.458-.859,2.239-4.218,2.239-1.458,0-1.953-.495-2.4-1.849l-.807-2.4a6.72,6.72,0,0,1-.286-1.015.479.479,0,0,1-.208,0l-.886,5.052a13.709,13.709,0,0,1-2.6.234c-1.3,0-2.5-.468-2.5-2.422a11.755,11.755,0,0,1,.286-2.187l1.354-6.926-1.328-.026a2.3,2.3,0,0,1-.416-1.458c0-1.9,1.406-2.447,7.082-2.447,5.077,0,6.926,1.692,6.926,4.478a4.632,4.632,0,0,1-2.917,4.5Zm-3.2-4.843h-.756l-.468,2.916c.182,0,.364.026.547.026,1.276,0,2.161-.5,2.161-1.823,0-.859-.755-1.12-1.484-1.12Z" transform="translate(-5153.764 -571.318)" fill="#fff"/>
            <path id="Path_418" data-name="Path 418" d="M5731.515,581.641l1.3-8.463.521-1.953a5.408,5.408,0,0,0-4.166-1.406c-1.51,0-2.682.443-3.255,1.588l-2.994,6.041-1.536-5.312c-.417-1.458-1.719-2.187-4.531-2.187-3.515,0-4.973.364-4.973,2.369a2.294,2.294,0,0,0,.417,1.458l1.25.026c-.156,1.042-.417,2.552-.782,4.5a43.762,43.762,0,0,0-.807,5.13c0,1.172.755,1.874,2.161,1.874a9.322,9.322,0,0,0,2.057-.234l1.068-6.614a7.194,7.194,0,0,0-.026-2.239c.495,1.771,1.458,6.249,1.822,7.161a2.06,2.06,0,0,0,2.109,1.042,4.5,4.5,0,0,0,2.083-.443c1.145-1.874,3.151-6.3,4.114-7.76a8.429,8.429,0,0,0-.364,1.666s-.859,4.791-.859,5.39c0,1.12.547,2,2.239,2,3.359,0,4.454-.781,4.454-2.239a2.689,2.689,0,0,0-.469-1.458l-.831.052Z" transform="translate(-5588.791 -569.82)" fill="#fff"/>
          </g>
        </g>
      </g>
    </g>
  </g>
</svg>
